<svg width="26" height="30" viewBox="0 0 26 30" fill="none" xmlns="http://www.w3.org/2000/svg">
<path d="M25 21.1371V21.1409V23.1039C25 24.5492 23.9875 26.0018 21.8304 27.148C19.6942 28.283 16.6157 29 13 29C9.38456 29 6.30595 28.2822 4.16959 27.1471C2.01185 26.0006 1.00002 24.5487 1.00002 23.1076L1.00003 21.1409L1.00001 21.1371C0.999057 20.8845 1.04894 20.6338 1.14738 20.3989C1.24584 20.164 1.39122 19.949 1.5763 19.7668C1.76142 19.5845 1.98261 19.4386 2.22777 19.3384C2.47253 19.2384 2.73573 19.1862 3.00218 19.1854H23.0008C23.2669 19.1866 23.5296 19.239 23.774 19.3391C24.0188 19.4394 24.2397 19.5854 24.4246 19.7676C24.6094 19.9499 24.7545 20.1648 24.8529 20.3995C24.9511 20.6342 25.0009 20.8847 25 21.1371ZM26 21.1409V23.1039C26 27.0482 20.4657 30 13 30C5.5343 30 2.06702e-05 27.0445 2.06702e-05 23.1076V21.1409H26ZM19.4286 7.26948C19.4292 8.09039 19.2646 8.90391 18.9437 9.66378C18.6228 10.4237 18.1515 11.1157 17.5556 11.6998C16.9597 12.2839 16.251 12.7485 15.4693 13.0661C14.6875 13.3837 13.8488 13.5477 13.0011 13.5483C12.1535 13.5489 11.3145 13.3861 10.5322 13.0697C9.75003 12.7532 9.04054 12.2897 8.44374 11.7064C7.84699 11.1233 7.37461 10.4319 7.05252 9.67245C6.73044 8.91305 6.56464 8.09976 6.56401 7.27885C6.56274 5.62186 7.23386 4.02779 8.43693 2.84855C9.64073 1.66859 11.2786 1.00126 12.9914 1C14.7043 0.998745 16.3432 1.66368 17.5488 2.84189C18.7537 4.01939 19.4273 5.61249 19.4286 7.26948Z" stroke="black" stroke-width="2"/>
</svg>
